<svg width="645" height="510" viewBox="0 0 645 510" fill="none" xmlns="http://www.w3.org/2000/svg">
<path d="M239.071 314.233L105.551 344.397C101.692 345.264 97.6705 344.455 94.3678 342.147C91.065 339.84 88.7511 336.223 87.9336 332.089L65.0217 215.587C64.213 211.451 64.9677 207.141 67.1206 203.601C69.2734 200.061 72.6483 197.581 76.5051 196.705L210.026 166.541C213.884 165.674 217.906 166.483 221.209 168.79C224.511 171.097 226.825 174.715 227.643 178.848L250.555 295.351C251.363 299.486 250.609 303.797 248.456 307.337C246.303 310.877 242.928 313.357 239.071 314.233V314.233ZM76.8659 198.539C73.4629 199.312 70.485 201.501 68.5855 204.624C66.686 207.747 66.0199 211.551 66.7335 215.2L89.6454 331.702C90.3667 335.35 92.4084 338.541 95.3226 340.577C98.2368 342.613 101.785 343.327 105.19 342.562L238.71 312.398C242.113 311.625 245.091 309.437 246.991 306.313C248.89 303.19 249.557 299.387 248.843 295.738L225.931 179.235C225.21 175.588 223.168 172.396 220.254 170.36C217.34 168.324 213.791 167.61 210.386 168.375L76.8659 198.539Z" fill="#3F3D56"/>
<path d="M201.73 204.955L134.344 220.178C133.754 220.325 133.134 220.226 132.61 219.902C132.085 219.578 131.696 219.052 131.519 218.432C131.438 218.108 131.42 217.77 131.465 217.439C131.51 217.107 131.617 216.789 131.781 216.503C131.944 216.218 132.161 215.971 132.416 215.778C132.672 215.585 132.961 215.45 133.267 215.381L201.862 199.884C204.54 201.502 203.694 204.511 201.729 204.955L201.73 204.955Z" fill="#CCCCCC"/>
<path d="M204.221 217.623L136.835 232.847C136.245 232.993 135.626 232.895 135.101 232.57C134.577 232.246 134.187 231.721 134.01 231.1C133.929 230.776 133.911 230.439 133.956 230.107C134.001 229.776 134.109 229.457 134.272 229.172C134.436 228.886 134.652 228.64 134.908 228.447C135.163 228.254 135.453 228.118 135.758 228.049L204.353 212.553C207.032 214.171 206.185 217.18 204.22 217.623L204.221 217.623Z" fill="#CCCCCC"/>
<path d="M123.686 243.351L103.121 247.997C102.449 248.148 101.749 248.007 101.174 247.605C100.599 247.204 100.196 246.574 100.054 245.855L94.9387 219.843C94.7979 219.123 94.9292 218.373 95.3039 217.757C95.6787 217.141 96.2662 216.709 96.9375 216.557L117.503 211.911C118.175 211.76 118.875 211.901 119.449 212.302C120.024 212.704 120.427 213.333 120.57 214.053L125.685 240.064C125.826 240.784 125.695 241.534 125.32 242.151C124.945 242.767 124.358 243.198 123.686 243.351V243.351Z" fill="#CCCCCC"/>
<path d="M209.126 243.606L106.283 266.84C105.693 266.987 105.073 266.888 104.549 266.564C104.025 266.24 103.635 265.714 103.458 265.093C103.377 264.77 103.359 264.432 103.404 264.1C103.449 263.769 103.557 263.451 103.72 263.165C103.884 262.88 104.1 262.633 104.355 262.44C104.611 262.247 104.9 262.112 105.206 262.043L209.259 238.536C211.938 240.153 211.091 243.162 209.126 243.606V243.606Z" fill="#CCCCCC"/>
<path d="M211.618 256.279L108.775 279.512C108.185 279.659 107.566 279.56 107.041 279.236C106.517 278.912 106.127 278.386 105.95 277.766C105.869 277.442 105.851 277.104 105.896 276.773C105.941 276.441 106.049 276.123 106.212 275.837C106.376 275.552 106.592 275.305 106.848 275.112C107.103 274.919 107.393 274.784 107.698 274.715L211.752 251.208C214.43 252.826 213.583 255.835 211.618 256.279V256.279Z" fill="#CCCCCC"/>
<path d="M214.109 268.942L111.266 292.176C110.676 292.323 110.056 292.224 109.532 291.9C109.007 291.576 108.618 291.05 108.441 290.43C108.36 290.106 108.342 289.768 108.387 289.437C108.432 289.105 108.539 288.787 108.703 288.501C108.866 288.216 109.083 287.969 109.338 287.776C109.594 287.583 109.883 287.448 110.189 287.379L214.242 263.872C216.92 265.49 216.074 268.499 214.109 268.942H214.109Z" fill="#CCCCCC"/>
<path d="M216.601 281.614L113.758 304.847C113.168 304.994 112.548 304.895 112.024 304.571C111.499 304.247 111.109 303.721 110.933 303.101C110.852 302.777 110.834 302.439 110.879 302.108C110.924 301.776 111.031 301.458 111.195 301.173C111.358 300.887 111.575 300.64 111.83 300.447C112.086 300.254 112.375 300.119 112.681 300.05L216.734 276.543C219.412 278.161 218.566 281.17 216.601 281.614V281.614Z" fill="#CCCCCC"/>
<path d="M219.092 294.279L116.248 317.512C115.659 317.659 115.039 317.56 114.515 317.236C113.99 316.912 113.6 316.386 113.424 315.766C113.343 315.442 113.324 315.104 113.369 314.773C113.414 314.441 113.522 314.123 113.686 313.837C113.849 313.552 114.065 313.305 114.321 313.112C114.576 312.919 114.866 312.784 115.172 312.715L219.225 289.208C221.903 290.826 221.057 293.835 219.092 294.279V294.279Z" fill="#CCCCCC"/>
<path d="M235.496 236.278C235.263 236.733 235.063 237.206 234.899 237.694L192.796 248.892L185.472 240.771L172.592 251.016L184.254 266.743C185.197 268.014 186.498 268.923 187.963 269.333C189.428 269.744 190.978 269.634 192.38 269.02L238.065 249.011C239.567 250.196 241.369 250.863 243.233 250.923C245.097 250.982 246.933 250.433 248.498 249.347C250.063 248.261 251.283 246.69 251.995 244.842C252.706 242.995 252.877 240.96 252.483 239.006C252.089 237.053 251.149 235.275 249.789 233.908C248.429 232.541 246.713 231.65 244.869 231.354C243.025 231.057 241.14 231.37 239.466 232.25C237.792 233.129 236.407 234.535 235.496 236.278L235.496 236.278Z" fill="#FFB8B8"/>
<path d="M91.7849 335.927C93.0975 335.493 94.3052 334.755 95.323 333.766C96.3409 332.778 97.144 331.562 97.6759 330.204C98.2078 328.847 98.4556 327.381 98.4017 325.909C98.3478 324.438 97.9936 322.998 97.364 321.689L126.338 235.376L106.217 231.554L84.0632 317.599C82.0821 318.878 80.6077 320.892 79.9193 323.258C79.231 325.625 79.3765 328.18 80.3283 330.439C81.2801 332.698 82.9721 334.505 85.0836 335.516C87.1951 336.528 89.5795 336.674 91.7849 335.927V335.927Z" fill="#FFB8B8"/>
<path d="M122.658 250.697L102.791 242.525C102.226 242.293 101.714 241.932 101.291 241.469C100.867 241.005 100.542 240.449 100.337 239.838C100.132 239.228 100.052 238.577 100.103 237.93C100.154 237.284 100.334 236.657 100.631 236.091L111.053 216.286C112.18 213.194 114.405 210.707 117.24 209.371C120.075 208.034 123.289 207.956 126.177 209.155C129.065 210.353 131.392 212.73 132.648 215.764C133.904 218.798 133.986 222.243 132.877 225.342L128.28 247.464C128.148 248.098 127.891 248.693 127.525 249.21C127.159 249.727 126.693 250.154 126.16 250.461C125.626 250.767 125.037 250.947 124.433 250.988C123.829 251.029 123.224 250.93 122.658 250.697V250.697Z" fill="#6C63FF"/>
<path d="M167.5 497.977H178.223L183.325 453.644L167.499 453.645L167.5 497.977Z" fill="#FFB8B8"/>
<path d="M164.765 494.224L185.883 494.224H185.884C187.652 494.223 189.402 494.597 191.035 495.321C192.668 496.046 194.151 497.109 195.401 498.448C196.651 499.788 197.642 501.378 198.318 503.128C198.995 504.878 199.343 506.754 199.343 508.648V509.117L164.765 509.118L164.765 494.224Z" fill="#2F2E41"/>
<path d="M107.145 497.977H117.869L122.971 453.644L107.144 453.645L107.145 497.977Z" fill="#FFB8B8"/>
<path d="M104.41 494.224L125.529 494.224H125.529C127.297 494.223 129.047 494.597 130.68 495.321C132.313 496.046 133.796 497.109 135.046 498.448C136.296 499.788 137.287 501.378 137.964 503.128C138.64 504.878 138.988 506.754 138.988 508.648V509.117L104.41 509.118L104.41 494.224Z" fill="#2F2E41"/>
<path d="M118.387 480.134H104.817C104.284 480.133 103.757 480.018 103.267 479.793C102.778 479.568 102.336 479.239 101.968 478.826C101.601 478.413 101.315 477.924 101.129 477.389C100.943 476.854 100.86 476.285 100.885 475.714L107.331 327.278L107.737 327.266L173.27 325.435L186.093 473.957C186.142 474.513 186.088 475.075 185.933 475.609C185.778 476.143 185.525 476.639 185.19 477.067C184.854 477.496 184.443 477.848 183.979 478.105C183.515 478.361 183.009 478.516 182.489 478.561L167.246 479.867C166.288 479.949 165.336 479.652 164.568 479.034C163.8 478.416 163.269 477.518 163.076 476.509L143.578 370.781C143.525 370.46 143.366 370.17 143.131 369.964C142.895 369.757 142.598 369.648 142.293 369.657H142.288C141.983 369.65 141.685 369.76 141.45 369.969C141.214 370.177 141.057 370.469 141.006 370.792L122.25 476.73C122.072 477.688 121.59 478.551 120.886 479.171C120.182 479.792 119.299 480.132 118.387 480.134V480.134Z" fill="#2F2E41"/>
<path d="M143.246 194.892C155.112 194.892 164.73 184.583 164.73 171.866C164.73 159.149 155.112 148.84 143.246 148.84C131.381 148.84 121.763 159.149 121.763 171.866C121.763 184.583 131.381 194.892 143.246 194.892Z" fill="#FFB8B8"/>
<path d="M136.043 344.673C125.803 344.673 115.286 341.788 106.567 333.259C106.103 332.808 105.745 332.247 105.521 331.62C105.298 330.992 105.216 330.318 105.281 329.65C106.215 320.663 110.741 274.262 108.192 243.266C107.695 237.476 108.459 231.642 110.426 226.223C112.393 220.804 115.507 215.95 119.524 212.042C123.471 208.144 128.209 205.282 133.364 203.682C138.52 202.082 143.952 201.788 149.231 202.823H149.232C149.499 202.874 149.766 202.928 150.034 202.983C167.234 206.551 179.185 223.612 177.832 242.669C175.859 270.475 174.09 308.087 176.868 329.357C176.983 330.227 176.841 331.114 176.462 331.894C176.084 332.673 175.487 333.306 174.756 333.704C168.436 337.126 152.603 344.673 136.043 344.673Z" fill="#6C63FF"/>
<path d="M164.076 252.354C163.572 251.995 163.146 251.523 162.828 250.971C162.51 250.419 162.306 249.8 162.231 249.156L159.614 226.666C158.783 223.467 159.169 220.046 160.688 217.153C162.207 214.259 164.734 212.129 167.716 211.229C170.698 210.33 173.891 210.735 176.595 212.354C179.299 213.974 181.294 216.677 182.141 219.871L190.762 240.647C191.008 241.24 191.132 241.882 191.126 242.531C191.119 243.18 190.982 243.82 190.724 244.407C190.466 244.994 190.092 245.514 189.63 245.933C189.167 246.351 188.625 246.658 188.042 246.832L167.541 252.946C166.958 253.121 166.347 253.158 165.749 253.056C165.151 252.954 164.58 252.714 164.076 252.354V252.354Z" fill="#6C63FF"/>
<path d="M135.747 194.567C133.713 194.607 131.692 194.215 129.801 193.414C128.969 193.07 128.105 192.788 127.274 192.444C119.938 189.406 115.106 181.032 114.933 172.606C114.76 164.179 118.832 156 124.878 150.61C130.924 145.219 138.755 142.452 146.597 141.812C155.043 141.123 164.554 143.419 169.274 150.958C170.531 152.965 171.409 155.4 170.665 157.823C170.442 158.554 170.044 159.21 169.51 159.724C167.402 161.734 165.301 160.223 163.152 160.089C160.199 159.906 157.546 162.468 156.592 165.47C155.639 168.471 156.059 171.776 156.828 174.837C157.415 176.68 157.785 178.593 157.929 180.534C157.991 181.507 157.82 182.48 157.433 183.363C157.046 184.245 156.454 185.007 155.715 185.576C153.87 186.772 151.446 186.08 149.599 184.886C147.753 183.692 146.157 182.032 144.162 181.154C142.168 180.275 139.488 180.47 138.327 182.418C137.958 183.127 137.708 183.9 137.589 184.701C136.548 189.784 136.787 189.484 135.747 194.567V194.567Z" fill="#2F2E41"/>
<path d="M433.321 163.125H296.867C292.924 163.12 289.145 161.44 286.357 158.452C283.569 155.464 282.001 151.413 281.997 147.188V28.125C282.001 23.8996 283.569 19.8486 286.357 16.8607C289.145 13.8729 292.924 12.1923 296.867 12.1875H433.321C437.263 12.1923 441.043 13.8729 443.831 16.8607C446.618 19.8486 448.186 23.8996 448.191 28.125V147.188C448.186 151.413 446.618 155.464 443.831 158.452C441.043 161.44 437.263 163.12 433.321 163.125V163.125ZM296.867 14.0625C293.388 14.0667 290.053 15.5496 287.593 18.186C285.134 20.8223 283.75 24.3967 283.746 28.125V147.188C283.75 150.916 285.134 154.49 287.593 157.127C290.053 159.763 293.388 161.246 296.867 161.25H433.321C436.799 161.246 440.134 159.763 442.594 157.127C445.054 154.49 446.438 150.916 446.442 147.188V28.125C446.438 24.3967 445.054 20.8223 442.594 18.186C440.134 15.5496 436.799 14.0667 433.321 14.0625H296.867Z" fill="#3F3D56"/>
<path d="M417.811 47.9419H348.944C348.339 47.955 347.752 47.7214 347.301 47.2883C346.85 46.8551 346.57 46.2547 346.517 45.6084C346.5 45.2739 346.547 44.9392 346.655 44.6247C346.762 44.3103 346.929 44.0227 347.144 43.7795C347.359 43.5364 347.618 43.3427 347.905 43.2103C348.192 43.078 348.502 43.0097 348.814 43.0097H418.916C421.226 45.1847 419.818 47.9419 417.81 47.9419L417.811 47.9419Z" fill="#CCCCCC"/>
<path d="M417.811 60.8887H348.944C348.339 60.9019 347.752 60.6683 347.301 60.2351C346.85 59.802 346.57 59.2015 346.517 58.5553C346.5 58.2207 346.547 57.886 346.655 57.5716C346.762 57.2572 346.929 56.9696 347.144 56.7264C347.359 56.4832 347.618 56.2896 347.905 56.1572C348.192 56.0248 348.502 55.9566 348.814 55.9566H418.916C421.226 58.1316 419.818 60.8888 417.81 60.8888L417.811 60.8887Z" fill="#CCCCCC"/>
<path d="M334.057 68.2603H313.04C312.353 68.2596 311.695 67.9671 311.21 67.447C310.725 66.9269 310.452 66.2217 310.451 65.4862V38.9034C310.452 38.1679 310.725 37.4628 311.21 36.9427C311.695 36.4226 312.353 36.1301 313.04 36.1294H334.057C334.743 36.1304 335.401 36.4229 335.886 36.943C336.371 37.463 336.644 38.168 336.645 38.9034V65.4862C336.645 66.2217 336.372 66.9269 335.886 67.447C335.401 67.9671 334.743 68.2596 334.057 68.2603V68.2603Z" fill="#3F3D56"/>
<path d="M417.611 87.3975H312.508C311.902 87.4107 311.315 87.1771 310.864 86.7439C310.414 86.3107 310.133 85.7103 310.08 85.0641C310.063 84.7295 310.11 84.3948 310.218 84.0804C310.326 83.766 310.492 83.4784 310.707 83.2352C310.922 82.992 311.181 82.7984 311.468 82.666C311.755 82.5337 312.065 82.4654 312.377 82.4654H418.717C421.026 84.6404 419.619 87.3976 417.611 87.3976V87.3975Z" fill="#CCCCCC"/>
<path d="M417.611 100.348H312.508C311.902 100.361 311.315 100.128 310.864 99.6945C310.414 99.2613 310.133 98.6609 310.08 98.0147C310.063 97.6801 310.11 97.3454 310.218 97.031C310.326 96.7165 310.492 96.429 310.707 96.1858C310.922 95.9426 311.181 95.7489 311.468 95.6166C311.755 95.4842 312.065 95.416 312.377 95.416H418.717C421.026 97.591 419.619 100.348 417.611 100.348V100.348Z" fill="#CCCCCC"/>
<path d="M417.611 113.29H312.508C311.902 113.303 311.315 113.07 310.864 112.637C310.414 112.204 310.133 111.603 310.08 110.957C310.063 110.622 310.11 110.288 310.218 109.973C310.326 109.659 310.492 109.371 310.707 109.128C310.922 108.885 311.181 108.691 311.468 108.559C311.755 108.426 312.065 108.358 312.377 108.358H418.717C421.026 110.533 419.619 113.29 417.611 113.29V113.29Z" fill="#CCCCCC"/>
<path d="M417.611 126.24H312.508C311.902 126.253 311.315 126.02 310.864 125.586C310.414 125.153 310.133 124.553 310.08 123.907C310.063 123.572 310.11 123.237 310.218 122.923C310.326 122.608 310.492 122.321 310.707 122.078C310.922 121.835 311.181 121.641 311.468 121.509C311.755 121.376 312.065 121.308 312.377 121.308H418.717C421.026 123.483 419.619 126.24 417.611 126.24V126.24Z" fill="#CCCCCC"/>
<path d="M417.611 139.183H312.508C311.902 139.196 311.315 138.963 310.864 138.529C310.414 138.096 310.133 137.496 310.08 136.85C310.063 136.515 310.11 136.18 310.218 135.866C310.326 135.552 310.492 135.264 310.707 135.021C310.922 134.778 311.181 134.584 311.468 134.452C311.755 134.319 312.065 134.251 312.377 134.251H418.717C421.026 136.426 419.619 139.183 417.611 139.183Z" fill="#CCCCCC"/>
<path d="M403.581 0C404.74 0.00142177 405.852 0.495738 406.672 1.37451C407.492 2.25328 407.953 3.44473 407.954 4.6875V19.6875C407.953 20.9303 407.492 22.1217 406.672 23.0005C405.852 23.8793 404.74 24.3736 403.581 24.375H326.607C325.447 24.3736 324.335 23.8793 323.516 23.0005C322.696 22.1217 322.234 20.9303 322.233 19.6875V4.6875C322.234 3.44473 322.696 2.25328 323.516 1.37451C324.335 0.495738 325.447 0.00142177 326.607 0" fill="#6C63FF"/>
<path d="M630.13 310.312H493.676C489.733 310.308 485.954 308.627 483.166 305.639C480.378 302.651 478.81 298.6 478.806 294.375V175.312C478.81 171.087 480.378 167.036 483.166 164.048C485.954 161.06 489.733 159.38 493.676 159.375H630.13C634.072 159.38 637.852 161.06 640.64 164.048C643.427 167.036 644.996 171.087 645 175.312V294.375C644.996 298.6 643.427 302.651 640.64 305.639C637.852 308.627 634.072 310.308 630.13 310.312ZM493.676 161.25C490.197 161.254 486.862 162.737 484.402 165.373C481.943 168.01 480.559 171.584 480.555 175.312V294.375C480.559 298.103 481.943 301.678 484.402 304.314C486.862 306.95 490.197 308.433 493.676 308.438H630.13C633.609 308.433 636.944 306.95 639.403 304.314C641.863 301.678 643.247 298.103 643.251 294.375V175.312C643.247 171.584 641.863 168.01 639.403 165.373C636.944 162.737 633.609 161.254 630.13 161.25H493.676Z" fill="#3F3D56"/>
<path d="M614.62 195.129H545.753C545.148 195.143 544.561 194.909 544.11 194.476C543.659 194.043 543.379 193.442 543.326 192.796C543.309 192.461 543.356 192.127 543.464 191.812C543.571 191.498 543.738 191.21 543.953 190.967C544.168 190.724 544.427 190.53 544.714 190.398C545.001 190.265 545.311 190.197 545.623 190.197H615.725C618.035 192.372 616.627 195.129 614.619 195.129H614.62Z" fill="#3F3D56"/>
<path d="M614.62 208.076H545.753C545.148 208.089 544.561 207.856 544.11 207.423C543.659 206.989 543.379 206.389 543.326 205.743C543.309 205.408 543.356 205.074 543.464 204.759C543.571 204.445 543.738 204.157 543.953 203.914C544.168 203.671 544.427 203.477 544.714 203.345C545.001 203.212 545.311 203.144 545.623 203.144H615.725C618.035 205.319 616.627 208.076 614.619 208.076H614.62Z" fill="#3F3D56"/>
<path d="M530.866 215.448H509.849C509.162 215.447 508.504 215.155 508.019 214.634C507.534 214.114 507.261 213.409 507.26 212.674V186.091C507.261 185.355 507.534 184.65 508.019 184.13C508.504 183.61 509.162 183.318 509.849 183.317H530.866C531.552 183.318 532.21 183.61 532.695 184.13C533.18 184.651 533.453 185.356 533.454 186.091V212.674C533.454 213.409 533.181 214.114 532.695 214.634C532.21 215.155 531.552 215.447 530.866 215.448V215.448Z" fill="#CCCCCC"/>
<path d="M613.963 287.635H592.946C592.259 287.635 591.602 287.342 591.116 286.822C590.631 286.302 590.358 285.597 590.357 284.861V269.528C590.358 268.793 590.631 268.088 591.116 267.568C591.602 267.048 592.259 266.755 592.946 266.754H613.963C614.649 266.755 615.307 267.048 615.792 267.568C616.278 268.088 616.551 268.793 616.551 269.528V284.861C616.551 285.597 616.278 286.302 615.793 286.822C615.307 287.342 614.649 287.635 613.963 287.635V287.635Z" fill="#3F3D56"/>
<path d="M614.42 234.585H509.317C508.711 234.598 508.124 234.365 507.673 233.931C507.223 233.498 506.942 232.898 506.889 232.252C506.872 231.917 506.919 231.582 507.027 231.268C507.135 230.953 507.301 230.666 507.516 230.423C507.731 230.18 507.99 229.986 508.277 229.853C508.565 229.721 508.874 229.653 509.186 229.653H615.526C617.835 231.828 616.428 234.585 614.42 234.585V234.585Z" fill="#CCCCCC"/>
<path d="M614.42 247.536H509.317C508.711 247.549 508.124 247.315 507.673 246.882C507.223 246.449 506.942 245.848 506.889 245.202C506.872 244.868 506.919 244.533 507.027 244.218C507.135 243.904 507.301 243.616 507.516 243.373C507.731 243.13 507.99 242.936 508.277 242.804C508.565 242.672 508.874 242.603 509.186 242.603H615.526C617.835 244.778 616.428 247.536 614.42 247.536V247.536Z" fill="#CCCCCC"/>
<path d="M614.42 260.478H509.317C508.711 260.491 508.124 260.257 507.673 259.824C507.223 259.391 506.942 258.791 506.889 258.144C506.872 257.81 506.919 257.475 507.027 257.161C507.135 256.846 507.301 256.559 507.516 256.315C507.731 256.072 507.99 255.879 508.277 255.746C508.565 255.614 508.874 255.546 509.186 255.546H615.526C617.835 257.721 616.428 260.478 614.42 260.478V260.478Z" fill="#CCCCCC"/>
<path d="M559.313 273.428H509.317C508.711 273.441 508.124 273.207 507.673 272.774C507.223 272.341 506.942 271.74 506.889 271.094C506.872 270.76 506.919 270.425 507.027 270.11C507.135 269.796 507.301 269.508 507.516 269.265C507.731 269.022 507.99 268.828 508.277 268.696C508.565 268.564 508.874 268.495 509.186 268.495H560.419C562.729 270.67 561.321 273.428 559.313 273.428V273.428Z" fill="#CCCCCC"/>
<path d="M559.313 286.371H509.317C508.711 286.384 508.124 286.15 507.673 285.717C507.223 285.284 506.942 284.683 506.889 284.037C506.872 283.703 506.919 283.368 507.027 283.053C507.135 282.739 507.301 282.451 507.516 282.208C507.731 281.965 507.99 281.771 508.277 281.639C508.565 281.507 508.874 281.438 509.186 281.438H560.419C562.729 283.613 561.321 286.371 559.313 286.371V286.371Z" fill="#CCCCCC"/>
<path d="M600.39 171.562H523.416C522.256 171.561 521.144 171.067 520.325 170.188C519.505 169.309 519.043 168.118 519.042 166.875V151.875C519.043 150.632 519.505 149.441 520.325 148.562C521.144 147.683 522.256 147.189 523.416 147.188H600.39C601.549 147.189 602.661 147.683 603.481 148.562C604.301 149.441 604.762 150.632 604.763 151.875V166.875C604.762 168.118 604.301 169.309 603.481 170.188C602.661 171.067 601.549 171.561 600.39 171.562Z" fill="#6C63FF"/>
</svg>
